<svg xmlns="http://www.w3.org/2000/svg" width="225" height="225" viewBox="0 0 225 225">
<g>
<path d="M 175.69 217.59 L 172.89 220.00 L 113.19 219.98 C55.88,219.96 53.40,219.88 51.00,218.03 L 48.50 216.11 L 48.50 112.98 C48.50,12.04 48.54,9.81 50.44,8.42 C52.07,7.23 62.30,7.00 113.54,7.00 C174.44,7.00 174.70,7.01 176.60,9.10 C178.44,11.15 178.50,14.31 178.50,113.19 L 178.50 215.17 ZM 76.04 113.07 C77.23,115.30 83.81,115.79 85.80,113.80 C86.50,113.10 87.00,109.75 87.00,105.78 L 87.00 98.97 L 139.50 99.50 L 140.00 106.40 C140.59,114.59 142.27,116.47 146.76,113.97 C149.24,112.58 149.55,111.78 150.00,105.53 C150.48,98.96 150.63,98.60 153.36,97.87 C159.12,96.34 160.00,94.58 159.99,84.60 C159.98,77.04 159.57,74.66 157.57,70.52 L 155.16 65.55 L 158.33 64.52 C160.49,63.83 161.60,62.76 161.83,61.19 C162.31,57.79 160.26,56.00 155.88,56.00 C152.47,56.00 152.00,55.72 152.00,53.63 C152.00,52.33 150.38,48.02 148.39,44.05 C146.50,40.27 145.32,37.78 143.41,36.14 C139.76,33.00 133.41,33.00 114.13,33.00 C113.54,33.00 112.94,33.00 112.33,33.00 L 86.15 33.00 L 83.28 35.42 C79.90,38.27 75.64,45.79 74.07,51.69 C73.00,55.70 72.77,55.90 68.73,56.19 C64.77,56.48 64.48,56.70 64.19,59.74 C63.92,62.48 64.31,63.17 66.69,64.20 C68.23,64.86 69.64,65.50 69.82,65.61 C70.00,65.72 69.19,67.66 68.04,69.93 C66.22,73.50 65.97,75.50 66.22,84.78 L 66.50 95.50 L 70.71 97.50 L 74.93 99.50 L 74.96 105.32 C74.98,108.51 75.47,112.00 76.04,113.07 ZM 121.17 62.49 C117.10,63.52 87.05,62.71 84.64,61.51 C82.96,60.68 82.43,59.37 82.18,55.48 C81.76,49.10 83.30,43.97 86.64,40.64 C89.10,38.17 89.86,38.00 98.50,38.00 L 107.72 38.00 L 107.24 40.50 C106.78,42.95 106.90,43.00 112.88,43.00 C118.24,43.00 119.00,42.76 119.00,41.08 C119.00,40.03 118.44,38.94 117.75,38.66 C117.06,38.38 121.03,38.12 126.56,38.08 C136.30,38.00 136.71,38.09 139.18,40.75 C143.41,45.31 145.48,55.10 143.04,58.97 C142.24,60.23 142.01,60.19 141.43,58.68 C140.63,56.60 135.96,54.00 133.00,54.00 C129.58,54.00 125.07,56.86 124.43,59.43 C124.05,60.93 122.84,62.08 121.17,62.49 ZM 148.12 150.29 C152.30,152.35 154.12,152.39 158.51,150.56 C164.77,147.94 167.91,139.07 164.65,133.19 C161.62,127.74 152.73,125.28 147.19,128.35 C138.73,133.05 139.28,145.93 148.12,150.29 ZM 61.00 143.45 L 61.00 151.00 L 64.00 151.00 C66.33,151.00 67.00,150.56 67.00,149.00 C67.00,147.22 67.67,147.00 73.00,147.00 C78.33,147.00 79.00,147.22 79.00,149.00 C79.00,150.56 79.67,151.00 82.00,151.00 L 85.00 151.00 L 85.00 143.45 C85.00,131.74 81.54,127.00 73.00,127.00 C64.46,127.00 61.00,131.74 61.00,143.45 ZM 96.42 150.58 C100.44,152.33 102.48,152.32 105.96,150.52 C111.60,147.60 113.00,144.59 113.00,135.37 L 113.00 127.00 L 107.00 127.00 L 107.00 133.78 C107.00,141.86 105.32,145.00 101.00,145.00 C96.68,145.00 95.00,141.86 95.00,133.78 L 95.00 127.00 L 89.00 127.00 L 89.00 135.37 C89.00,144.75 90.61,148.05 96.42,150.58 ZM 126.67 205.33 C127.50,206.17 134.68,206.03 137.99,205.11 C141.66,204.08 145.29,198.22 144.55,194.50 C143.54,189.43 140.35,187.31 132.75,186.66 L 126.00 186.08 L 126.00 195.37 C126.00,200.48 126.30,204.97 126.67,205.33 ZM 81.67 205.33 C83.16,206.83 86.00,205.95 86.00,204.00 C86.00,202.30 86.67,202.00 90.38,202.00 C93.93,202.00 94.87,202.38 95.29,204.00 C95.60,205.20 96.65,206.00 97.91,206.00 C99.83,206.00 100.00,205.44 100.00,198.92 C100.00,192.43 99.76,191.60 97.08,188.92 C94.91,186.76 93.21,186.00 90.50,186.00 C87.79,186.00 86.09,186.76 83.92,188.92 C81.30,191.55 81.00,192.50 81.00,198.26 C81.00,201.78 81.30,204.97 81.67,205.33 ZM 121.00 148.00 L 121.00 151.00 L 134.00 151.00 L 134.00 148.00 C131.35,145.00 131.00,143.72 131.00,139.50 L 131.00 134.00 L 134.50 134.00 C137.83,134.00 138.00,133.83 138.00,130.50 L 138.00 127.00 L 116.87 127.00 L 117.19 130.25 C117.46,133.11 117.89,133.54 120.75,133.81 C123.98,134.12 124.00,134.16 124.00,139.56 C124.00,143.73 123.65,145.00 122.50,145.00 ZM 108.24 175.96 C109.48,176.46 113.54,176.90 117.25,176.94 C123.80,177.00 124.00,176.93 124.00,174.50 C124.00,172.09 123.76,172.00 117.56,172.00 C114.02,172.00 110.84,171.55 110.50,171.00 C110.12,170.38 111.82,170.00 114.94,170.00 C119.90,170.00 120.00,169.94 120.00,167.00 C120.00,164.07 119.89,164.00 115.00,164.00 C112.25,164.00 110.00,163.55 110.00,163.00 C110.00,162.43 113.00,162.00 117.00,162.00 C123.80,162.00 124.00,161.93 124.00,159.50 C124.00,157.05 123.86,157.00 116.15,157.00 C106.61,157.00 104.73,158.42 104.54,165.77 C104.38,171.91 105.44,174.84 108.24,175.96 ZM 151.50 204.83 C152.60,205.46 156.43,205.88 160.00,205.74 C165.89,205.52 166.53,205.29 166.82,203.25 C167.12,201.14 166.78,201.00 161.32,200.98 C158.12,200.98 154.82,200.53 154.00,200.00 C152.93,199.31 153.99,199.03 157.75,199.02 C162.65,199.00 163.00,198.84 163.00,196.55 C163.00,194.35 162.54,194.08 158.25,193.80 C151.44,193.37 153.27,191.50 160.50,191.50 C166.21,191.50 166.51,191.37 166.80,188.91 L 167.10 186.33 L 159.16 186.45 C148.97,186.61 148.00,187.39 148.02,195.37 C148.03,201.98 148.43,203.05 151.50,204.83 ZM 82.70 176.37 C84.33,178.00 86.51,176.33 86.81,173.24 C87.12,170.12 87.29,170.00 91.56,170.00 C95.97,170.00 96.00,170.03 96.00,173.50 C96.00,176.57 96.31,177.00 98.50,177.00 L 101.00 177.00 L 101.00 157.00 L 98.50 157.00 C96.31,157.00 96.00,157.43 96.00,160.50 C96.00,163.98 95.98,164.00 91.50,164.00 C87.02,164.00 87.00,163.98 87.00,160.50 C87.00,157.43 86.69,157.00 84.50,157.00 C82.01,157.00 82.00,157.04 82.00,166.33 C82.00,171.47 82.32,175.98 82.70,176.37 ZM 145.78 172.05 C146.21,176.51 146.52,177.07 148.38,176.80 C149.96,176.58 150.58,175.67 150.81,173.25 C150.99,171.46 151.46,170.00 151.87,170.00 C152.27,170.00 154.13,171.57 156.00,173.50 C158.61,176.19 160.20,177.00 162.90,177.00 L 166.41 177.00 L 162.71 173.22 C159.06,169.48 159.04,169.41 161.01,167.73 C162.45,166.49 163.00,164.78 163.00,161.51 C163.00,157.37 162.80,157.00 160.50,157.00 C158.31,157.00 158.00,157.43 158.00,160.50 C158.00,163.83 157.83,164.00 154.50,164.00 C151.17,164.00 151.00,163.83 151.00,160.50 C151.00,157.48 150.67,157.00 148.63,157.00 C146.51,157.00 146.20,157.54 145.77,162.00 C145.51,164.75 145.51,169.27 145.78,172.05 ZM 61.67 205.33 C62.03,205.70 64.75,206.00 67.71,206.00 C72.09,206.00 73.55,205.54 75.55,203.55 C78.39,200.70 78.58,199.27 76.48,196.27 C75.32,194.61 73.75,194.03 69.81,193.80 C62.05,193.35 62.20,191.00 69.99,191.00 C75.79,191.00 76.12,190.87 75.82,188.75 C75.53,186.72 74.91,186.49 69.50,186.36 C61.78,186.19 59.00,187.81 59.00,192.50 C59.00,195.31 59.55,196.23 61.95,197.47 C63.57,198.31 66.75,199.00 69.01,199.00 C71.49,199.00 72.87,199.40 72.50,200.00 C72.16,200.55 69.43,201.00 66.44,201.00 C61.83,201.00 61.00,201.28 61.00,202.83 C61.00,203.84 61.30,204.97 61.67,205.33 ZM 109.50 205.05 C113.28,206.60 116.15,206.01 119.08,203.08 C121.76,200.39 122.00,199.57 122.00,193.01 C122.00,186.17 121.90,185.87 119.75,186.18 C117.75,186.47 117.47,187.15 117.19,192.47 C116.86,198.88 115.81,201.00 112.93,201.00 C110.10,201.00 108.00,197.07 108.00,191.78 C108.00,187.29 107.84,187.00 105.38,187.00 C102.79,187.00 102.77,187.06 103.18,193.44 C103.60,200.14 105.36,203.36 109.50,205.05 ZM 66.33 175.54 C68.07,176.30 71.41,176.94 73.75,176.96 C77.57,177.00 78.00,176.76 78.00,174.63 C78.00,172.56 77.42,172.20 73.50,171.75 C68.44,171.18 66.00,169.62 66.00,166.95 C66.00,163.86 68.84,162.00 73.57,162.00 C77.68,162.00 78.00,161.81 78.00,159.38 C78.00,156.79 77.93,156.76 71.85,157.20 C66.69,157.58 65.32,158.09 63.35,160.38 C60.80,163.34 60.22,168.68 62.08,172.15 C62.67,173.26 64.58,174.78 66.33,175.54 ZM 132.33 175.54 C134.07,176.30 137.41,176.94 139.75,176.96 C143.63,177.00 144.00,176.78 144.00,174.50 C144.00,172.27 143.59,172.00 140.22,172.00 C135.50,172.00 132.00,169.65 132.00,166.48 C132.00,163.48 134.62,162.00 139.93,162.00 C143.60,162.00 144.00,161.76 144.00,159.50 C144.00,157.13 143.71,157.00 138.42,157.00 C133.59,157.00 132.46,157.39 129.92,159.92 C124.94,164.91 126.16,172.86 132.33,175.54 ZM 157.17 143.35 C153.78,146.42 148.90,144.86 147.54,140.27 C146.76,137.63 150.75,133.00 153.80,133.00 C158.37,133.00 160.70,140.15 157.17,143.35 ZM 80.80 90.80 C79.59,92.01 76.54,92.26 74.25,91.34 C73.56,91.06 73.00,89.31 73.00,87.45 C73.00,83.24 75.95,81.20 79.63,82.88 C82.25,84.07 82.93,88.67 80.80,90.80 ZM 138.00 199.00 C136.02,200.98 132.96,201.62 131.67,200.33 C131.30,199.97 131.00,197.99 131.00,195.94 C131.00,192.44 132.19,191.00 135.08,191.00 C136.32,191.00 140.00,194.75 140.00,196.00 C140.00,196.55 139.10,197.90 138.00,199.00 ZM 78.23 138.08 C78.52,140.71 76.88,141.16 70.25,140.30 C66.49,139.81 66.05,137.95 69.00,135.00 C72.76,131.24 77.65,132.88 78.23,138.08 ZM 151.95 90.56 C150.63,92.15 147.23,92.43 145.18,91.13 C144.38,90.62 143.98,88.94 144.18,86.90 C144.49,83.65 144.68,83.50 148.50,83.50 C152.14,83.50 152.53,83.75 152.82,86.31 C153.00,87.86 152.61,89.77 151.95,90.56 ZM 95.00 195.20 C95.00,196.67 94.17,197.00 90.50,197.00 C85.64,197.00 84.64,195.50 87.57,192.57 C90.48,189.66 95.00,191.26 95.00,195.20 ZM 138.46 61.07 C137.74,62.23 127.00,62.31 127.00,61.15 C127.00,59.66 130.59,57.00 132.61,57.00 C135.11,57.00 139.21,59.85 138.46,61.07 ZM 89.50 87.00 C89.50,89.85 86.34,91.06 85.39,88.57 C84.48,86.20 85.77,83.81 87.75,84.19 C88.85,84.40 89.50,85.44 89.50,87.00 ZM 140.50 87.00 C140.50,88.86 139.90,89.58 138.18,89.83 C136.16,90.12 135.89,89.79 136.18,87.33 C136.61,83.52 140.50,83.22 140.50,87.00 ZM 111.44 183.90 C112.38,185.42 113.53,185.28 115.04,183.46 C116.01,182.28 116.04,181.64 115.15,180.75 C113.72,179.32 110.37,182.17 111.44,183.90 Z" fill="rgb(27,20,18)"/>
<path d="M 76.04 113.07 C75.47,112.00 74.98,108.51 74.96,105.32 L 74.93 99.50 L 70.71 97.50 L 66.50 95.50 L 66.22 84.78 C65.97,75.50 66.22,73.50 68.04,69.93 C69.19,67.66 70.00,65.72 69.82,65.61 C69.64,65.50 68.23,64.86 66.69,64.20 C64.31,63.17 63.92,62.48 64.19,59.74 C64.48,56.70 64.77,56.48 68.73,56.19 C72.77,55.90 73.00,55.70 74.07,51.69 C75.64,45.79 79.90,38.27 83.28,35.42 L 86.15 33.00 L 112.33 33.00 C112.92,33.00 113.50,33.00 114.06,33.00 L 114.13 33.00 C133.41,33.00 139.76,33.00 143.41,36.14 C145.32,37.78 146.50,40.27 148.39,44.05 C150.38,48.02 152.00,52.33 152.00,53.63 C152.00,55.72 152.47,56.00 155.88,56.00 C160.26,56.00 162.31,57.79 161.83,61.19 C161.60,62.76 160.49,63.83 158.33,64.52 L 155.16 65.55 L 157.57 70.52 C158.03,71.47 158.40,72.32 158.71,73.16 C158.31,72.14 157.80,71.07 157.14,69.78 L 154.29 64.19 L 157.14 63.62 C159.12,63.23 160.00,62.45 160.00,61.08 C160.00,58.80 158.83,57.92 154.70,57.07 C152.07,56.53 151.48,55.70 149.61,49.96 C148.44,46.34 145.95,41.61 144.00,39.29 C141.09,35.82 139.71,35.01 135.81,34.47 C133.23,34.12 130.08,34.16 128.81,34.56 C126.59,35.27 126.58,35.33 128.50,36.08 C129.60,36.51 131.72,36.89 133.20,36.93 C137.79,37.05 140.60,39.00 142.84,43.62 C145.13,48.32 145.70,55.83 144.01,58.99 C142.37,62.05 138.40,62.82 118.79,62.78 C119.88,62.70 120.70,62.61 121.17,62.49 C122.84,62.08 124.05,60.93 124.43,59.43 C125.07,56.86 129.58,54.00 133.00,54.00 C135.96,54.00 140.63,56.60 141.43,58.68 C142.01,60.19 142.24,60.23 143.04,58.97 C145.48,55.10 143.41,45.31 139.18,40.75 C136.71,38.09 136.30,38.00 126.56,38.08 C121.03,38.12 117.06,38.38 117.75,38.66 C118.44,38.94 119.00,40.03 119.00,41.08 C119.00,42.76 118.24,43.00 112.88,43.00 C106.90,43.00 106.78,42.95 107.24,40.50 L 107.72 38.00 L 98.50 38.00 C89.86,38.00 89.10,38.17 86.64,40.64 C83.30,43.97 81.76,49.10 82.18,55.48 C82.43,59.37 82.96,60.68 84.64,61.51 C85.15,61.76 86.90,62.00 89.37,62.21 C85.85,61.96 84.25,61.62 83.65,61.13 C82.36,60.05 82.00,57.96 82.00,51.53 C82.00,43.82 82.18,43.11 84.85,40.40 C86.41,38.80 88.55,36.96 89.60,36.31 C91.40,35.18 91.38,35.11 89.21,35.06 C84.10,34.93 77.62,43.12 75.43,52.50 C74.40,56.89 73.02,58.22 70.23,57.52 C67.86,56.93 65.00,58.36 65.00,60.14 C65.00,60.63 66.57,61.78 68.50,62.70 C72.57,64.64 72.69,65.14 69.96,68.84 C68.49,70.82 67.65,74.23 66.95,80.95 C66.10,89.20 66.19,90.65 67.76,93.33 C68.77,95.06 70.77,96.70 72.43,97.14 C76.20,98.15 76.62,98.96 76.88,105.78 C77.15,112.75 78.75,114.83 82.73,113.43 C85.32,112.52 85.53,112.02 86.00,105.48 L 86.50 98.50 L 111.88 98.23 C129.76,98.04 137.66,98.30 138.63,99.11 C138.74,99.20 138.86,99.33 138.96,99.49 L 87.00 98.97 L 87.00 105.78 C87.00,109.75 86.50,113.10 85.80,113.80 C83.81,115.79 77.23,115.30 76.04,113.07 ZM 80.76 92.05 C78.77,93.14 73.65,93.32 72.67,92.33 C72.30,91.97 72.00,89.77 72.00,87.46 C72.00,81.61 73.79,80.29 79.28,82.08 C81.60,82.84 84.80,83.47 86.38,83.48 C92.53,83.52 92.47,89.51 86.30,90.50 C84.21,90.83 81.72,91.53 80.76,92.05 ZM 152.17 91.35 C150.03,93.28 145.92,93.52 144.20,91.80 C143.53,91.13 141.43,90.70 139.52,90.83 C136.56,91.03 135.96,90.69 135.42,88.53 C134.35,84.27 135.56,82.69 139.33,83.40 C141.48,83.81 143.77,83.46 145.86,82.42 C148.81,80.95 149.27,80.95 151.54,82.43 C154.53,84.39 154.85,88.92 152.17,91.35 ZM 80.80 90.80 C82.93,88.67 82.25,84.07 79.63,82.88 C75.95,81.20 73.00,83.24 73.00,87.45 C73.00,89.31 73.56,91.06 74.25,91.34 C76.54,92.26 79.59,92.01 80.80,90.80 ZM 151.95 90.56 C152.61,89.77 153.00,87.86 152.82,86.31 C152.53,83.75 152.14,83.50 148.50,83.50 C144.68,83.50 144.49,83.65 144.18,86.90 C143.98,88.94 144.38,90.62 145.18,91.13 C147.23,92.43 150.63,92.15 151.95,90.56 ZM 138.46 61.07 C139.21,59.85 135.11,57.00 132.61,57.00 C130.59,57.00 127.00,59.66 127.00,61.15 C127.00,62.31 137.74,62.23 138.46,61.07 ZM 89.50 87.00 C89.50,85.44 88.85,84.40 87.75,84.19 C85.77,83.81 84.48,86.20 85.39,88.57 C86.34,91.06 89.50,89.85 89.50,87.00 ZM 140.50 87.00 C140.50,83.22 136.61,83.52 136.18,87.33 C135.89,89.79 136.16,90.12 138.18,89.83 C139.90,89.58 140.50,88.86 140.50,87.00 ZM 97.00 35.00 C95.94,35.69 97.19,35.97 101.31,35.98 C104.93,35.99 106.89,35.62 106.50,35.00 C105.71,33.72 98.97,33.72 97.00,35.00 ZM 110.00 41.08 C110.00,42.26 114.71,42.29 115.43,41.11 C116.06,40.09 113.10,39.12 111.25,39.75 C110.56,39.98 110.00,40.58 110.00,41.08 ZM 139.65 101.53 C139.88,102.76 140.00,104.40 140.00,106.40 ZM 142.46 114.65 C143.11,114.93 143.83,115.01 144.58,114.89 C143.74,115.09 143.04,115.02 142.46,114.65 ZM 147.67 113.41 C147.74,113.36 147.80,113.30 147.86,113.25 C148.26,112.91 148.60,112.56 148.87,112.14 C148.58,112.66 148.19,113.04 147.67,113.41 ZM 150.88 99.42 C151.20,98.69 151.72,98.37 152.59,98.10 C151.74,98.37 151.23,98.69 150.88,99.42 ZM 157.90 95.73 C158.69,94.94 159.19,93.89 159.51,92.39 C159.19,93.89 158.69,94.94 157.90,95.73 Z" fill="rgb(223,217,72)"/>
<path d="M 148.12 150.29 C139.28,145.93 138.73,133.05 147.19,128.35 C152.73,125.28 161.62,127.74 164.65,133.19 C167.91,139.07 164.77,147.94 158.51,150.56 C154.12,152.39 152.30,152.35 148.12,150.29 ZM 61.00 143.45 C61.00,131.74 64.46,127.00 73.00,127.00 C81.54,127.00 85.00,131.74 85.00,143.45 L 85.00 151.00 L 82.00 151.00 C79.67,151.00 79.00,150.56 79.00,149.00 C79.00,147.22 78.33,147.00 73.00,147.00 C67.67,147.00 67.00,147.22 67.00,149.00 C67.00,150.56 66.33,151.00 64.00,151.00 L 61.00 151.00 ZM 96.42 150.58 C90.61,148.05 89.00,144.75 89.00,135.37 L 89.00 127.00 L 95.00 127.00 L 95.00 133.78 C95.00,141.86 96.68,145.00 101.00,145.00 C105.32,145.00 107.00,141.86 107.00,133.78 L 107.00 127.00 L 113.00 127.00 L 113.00 135.37 C113.00,144.59 111.60,147.60 105.96,150.52 C102.48,152.32 100.44,152.33 96.42,150.58 ZM 126.67 205.33 C126.30,204.97 126.00,200.48 126.00,195.37 L 126.00 186.08 L 132.75 186.66 C140.35,187.31 143.54,189.43 144.55,194.50 C145.29,198.22 141.66,204.08 137.99,205.11 C134.68,206.03 127.50,206.17 126.67,205.33 ZM 81.67 205.33 C81.30,204.97 81.00,201.78 81.00,198.26 C81.00,192.50 81.30,191.55 83.92,188.92 C86.09,186.76 87.79,186.00 90.50,186.00 C93.21,186.00 94.91,186.76 97.08,188.92 C99.76,191.60 100.00,192.43 100.00,198.92 C100.00,205.44 99.83,206.00 97.91,206.00 C96.65,206.00 95.60,205.20 95.29,204.00 C94.87,202.38 93.93,202.00 90.38,202.00 C86.67,202.00 86.00,202.30 86.00,204.00 C86.00,205.95 83.16,206.83 81.67,205.33 ZM 121.00 148.00 C123.65,145.00 124.00,143.73 124.00,139.56 C124.00,134.16 123.98,134.12 120.75,133.81 C117.89,133.54 117.46,133.11 117.19,130.25 L 116.87 127.00 L 138.00 127.00 L 138.00 130.50 C138.00,133.83 137.83,134.00 134.50,134.00 L 131.00 134.00 L 131.00 139.50 C131.00,143.72 131.35,145.00 132.50,145.00 L 134.00 151.00 L 121.00 151.00 ZM 108.24 175.96 C105.44,174.84 104.38,171.91 104.54,165.77 C104.73,158.42 106.61,157.00 116.15,157.00 C123.86,157.00 124.00,157.05 124.00,159.50 C124.00,161.93 123.80,162.00 117.00,162.00 C113.00,162.00 110.00,162.43 110.00,163.00 C110.00,163.55 112.25,164.00 115.00,164.00 C119.89,164.00 120.00,164.07 120.00,167.00 C120.00,169.94 119.90,170.00 114.94,170.00 C111.82,170.00 110.12,170.38 110.50,171.00 C110.84,171.55 114.02,172.00 117.56,172.00 C123.76,172.00 124.00,172.09 124.00,174.50 C124.00,176.93 123.80,177.00 117.25,176.94 C113.54,176.90 109.48,176.46 108.24,175.96 ZM 151.50 204.83 C148.43,203.05 148.03,201.98 148.02,195.37 C148.00,187.39 148.97,186.61 159.16,186.45 L 167.10 186.33 L 166.80 188.91 C166.51,191.37 166.21,191.50 160.50,191.50 C153.27,191.50 151.44,193.37 158.25,193.80 C162.54,194.08 163.00,194.35 163.00,196.55 C163.00,198.84 162.65,199.00 157.75,199.02 C153.99,199.03 152.93,199.31 154.00,200.00 C154.82,200.53 158.12,200.98 161.32,200.98 C166.78,201.00 167.12,201.14 166.82,203.25 C166.53,205.29 165.89,205.52 160.00,205.74 C156.43,205.88 152.60,205.46 151.50,204.83 ZM 82.70 176.37 C82.32,175.98 82.00,171.47 82.00,166.33 C82.00,157.04 82.01,157.00 84.50,157.00 C86.69,157.00 87.00,157.43 87.00,160.50 C87.00,163.98 87.02,164.00 91.50,164.00 C95.98,164.00 96.00,163.98 96.00,160.50 C96.00,157.43 96.31,157.00 98.50,157.00 L 101.00 157.00 L 101.00 177.00 L 98.50 177.00 C96.31,177.00 96.00,176.57 96.00,173.50 C96.00,170.03 95.97,170.00 91.56,170.00 C87.29,170.00 87.12,170.12 86.81,173.24 C86.51,176.33 84.33,178.00 82.70,176.37 ZM 145.78 172.05 C145.51,169.27 145.51,164.75 145.77,162.00 C146.20,157.54 146.51,157.00 148.63,157.00 C150.67,157.00 151.00,157.48 151.00,160.50 C151.00,163.83 151.17,164.00 154.50,164.00 C157.83,164.00 158.00,163.83 158.00,160.50 C158.00,157.43 158.31,157.00 160.50,157.00 C162.80,157.00 163.00,157.37 163.00,161.51 C163.00,164.78 162.45,166.49 161.01,167.73 C159.04,169.41 159.06,169.48 162.71,173.22 L 166.41 177.00 L 162.90 177.00 C160.20,177.00 158.61,176.19 156.00,173.50 C154.13,171.57 152.27,170.00 151.87,170.00 C151.46,170.00 150.99,171.46 150.81,173.25 C150.58,175.67 149.96,176.58 148.38,176.80 C146.52,177.07 146.21,176.51 145.78,172.05 ZM 61.67 205.33 C61.30,204.97 61.00,203.84 61.00,202.83 C61.00,201.28 61.83,201.00 66.44,201.00 C69.43,201.00 72.16,200.55 72.50,200.00 C72.87,199.40 71.49,199.00 69.01,199.00 C66.75,199.00 63.57,198.31 61.95,197.47 C59.55,196.23 59.00,195.31 59.00,192.50 C59.00,187.81 61.78,186.19 69.50,186.36 C74.91,186.49 75.53,186.72 75.82,188.75 C76.12,190.87 75.79,191.00 69.99,191.00 C62.20,191.00 62.05,193.35 69.81,193.80 C73.75,194.03 75.32,194.61 76.48,196.27 C78.58,199.27 78.39,200.70 75.55,203.55 C73.55,205.54 72.09,206.00 67.71,206.00 C64.75,206.00 62.03,205.70 61.67,205.33 ZM 109.50 205.05 C105.36,203.36 103.60,200.14 103.18,193.44 C102.77,187.06 102.79,187.00 105.38,187.00 C107.84,187.00 108.00,187.29 108.00,191.78 C108.00,197.07 110.10,201.00 112.93,201.00 C115.81,201.00 116.86,198.88 117.19,192.47 C117.47,187.15 117.75,186.47 119.75,186.18 C121.90,185.87 122.00,186.17 122.00,193.01 C122.00,199.57 121.76,200.39 119.08,203.08 C116.15,206.01 113.28,206.60 109.50,205.05 ZM 66.33 175.54 C64.58,174.78 62.67,173.26 62.08,172.15 C60.22,168.68 60.80,163.34 63.35,160.38 C65.32,158.09 66.69,157.58 71.85,157.20 C77.93,156.76 78.00,156.79 78.00,159.38 C78.00,161.81 77.68,162.00 73.57,162.00 C68.84,162.00 66.00,163.86 66.00,166.95 C66.00,169.62 68.44,171.18 73.50,171.75 C77.42,172.20 78.00,172.56 78.00,174.63 C78.00,176.76 77.57,177.00 73.75,176.96 C71.41,176.94 68.07,176.30 66.33,175.54 ZM 132.33 175.54 C126.16,172.86 124.94,164.91 129.92,159.92 C132.46,157.39 133.59,157.00 138.42,157.00 C143.71,157.00 144.00,157.13 144.00,159.50 C144.00,161.76 143.60,162.00 139.93,162.00 C134.62,162.00 132.00,163.48 132.00,166.48 C132.00,169.65 135.50,172.00 140.22,172.00 C143.59,172.00 144.00,172.27 144.00,174.50 C144.00,176.78 143.63,177.00 139.75,176.96 C137.41,176.94 134.07,176.30 132.33,175.54 ZM 157.17 143.35 C160.70,140.15 158.37,133.00 153.80,133.00 C150.75,133.00 146.76,137.63 147.54,140.27 C148.90,144.86 153.78,146.42 157.17,143.35 ZM 138.00 199.00 C139.10,197.90 140.00,196.55 140.00,196.00 C140.00,194.75 136.32,191.00 135.08,191.00 C132.19,191.00 131.00,192.44 131.00,195.94 C131.00,197.99 131.30,199.97 131.67,200.33 C132.96,201.62 136.02,200.98 138.00,199.00 ZM 78.23 138.08 C77.65,132.88 72.76,131.24 69.00,135.00 C66.05,137.95 66.49,139.81 70.25,140.30 C76.88,141.16 78.52,140.71 78.23,138.08 ZM 95.00 195.20 C95.00,191.26 90.48,189.66 87.57,192.57 C84.64,195.50 85.64,197.00 90.50,197.00 C94.17,197.00 95.00,196.67 95.00,195.20 ZM 111.44 183.90 C110.37,182.17 113.72,179.32 115.15,180.75 C116.04,181.64 116.01,182.28 115.04,183.46 C113.53,185.28 112.38,185.42 111.44,183.90 Z" fill="rgb(247,246,247)"/>
<path d="M 0.00 112.50 L 0.00 0.00 L 112.50 0.00 L 225.00 0.00 L 225.00 112.50 L 225.00 225.00 L 112.50 225.00 L 0.00 225.00 L 0.00 112.50 ZM 175.69 217.59 L 178.50 215.17 L 178.50 113.19 C178.50,14.31 178.44,11.15 176.60,9.10 C174.70,7.01 174.44,7.00 113.54,7.00 C62.30,7.00 52.07,7.23 50.44,8.42 C48.54,9.81 48.50,12.04 48.50,112.98 L 48.50 216.11 L 51.00 218.03 C53.40,219.88 55.88,219.96 113.19,219.98 L 172.89 220.00 L 175.69 217.59 ZM 141.20 113.80 C140.53,113.13 140.00,109.89 140.00,106.42 C140.00,102.40 139.52,99.85 138.63,99.11 C137.66,98.30 129.76,98.04 111.88,98.23 L 86.50 98.50 L 86.00 105.48 C85.53,112.02 85.32,112.52 82.73,113.43 C78.75,114.83 77.15,112.75 76.88,105.78 C76.62,98.96 76.20,98.15 72.43,97.14 C70.77,96.70 68.77,95.06 67.76,93.33 C66.19,90.65 66.10,89.20 66.95,80.95 C67.65,74.23 68.49,70.82 69.96,68.84 C72.69,65.14 72.57,64.64 68.50,62.70 C66.57,61.78 65.00,60.63 65.00,60.14 C65.00,58.36 67.86,56.93 70.23,57.52 C73.02,58.22 74.40,56.89 75.43,52.50 C77.62,43.12 84.10,34.93 89.21,35.06 C91.38,35.11 91.40,35.18 89.60,36.31 C88.55,36.96 86.41,38.80 84.85,40.40 C82.18,43.11 82.00,43.82 82.00,51.53 C82.00,57.96 82.36,60.05 83.65,61.13 C84.94,62.20 90.94,62.55 110.90,62.73 C137.40,62.97 142.17,62.43 144.01,58.99 C145.70,55.83 145.13,48.32 142.84,43.62 C140.60,39.00 137.79,37.05 133.20,36.93 C131.72,36.89 129.60,36.51 128.50,36.08 C126.58,35.33 126.59,35.27 128.81,34.56 C130.08,34.16 133.23,34.12 135.81,34.47 C139.71,35.01 141.09,35.82 144.00,39.29 C145.95,41.61 148.44,46.34 149.61,49.96 C151.48,55.70 152.07,56.53 154.70,57.07 C158.83,57.92 160.00,58.80 160.00,61.08 C160.00,62.45 159.12,63.23 157.14,63.62 L 154.29 64.19 L 157.14 69.78 C159.67,74.72 160.00,76.42 160.00,84.53 C160.00,94.59 159.13,96.34 153.36,97.88 C150.63,98.60 150.49,98.93 150.23,105.07 C150.01,110.15 149.51,111.87 147.86,113.25 C145.43,115.29 142.90,115.50 141.20,113.80 ZM 80.76 92.05 C81.72,91.53 84.21,90.83 86.30,90.50 C92.47,89.51 92.53,83.52 86.38,83.48 C84.80,83.47 81.60,82.84 79.28,82.08 C73.79,80.29 72.00,81.61 72.00,87.46 C72.00,89.77 72.30,91.97 72.67,92.33 C73.65,93.32 78.77,93.14 80.76,92.05 ZM 152.17 91.35 C154.85,88.92 154.53,84.39 151.54,82.43 C149.27,80.95 148.81,80.95 145.86,82.42 C143.77,83.46 141.48,83.81 139.33,83.40 C135.56,82.69 134.35,84.27 135.42,88.53 C135.96,90.69 136.56,91.03 139.52,90.83 C141.43,90.70 143.53,91.13 144.20,91.80 C145.92,93.52 150.03,93.28 152.17,91.35 ZM 110.00 41.08 C110.00,40.58 110.56,39.98 111.25,39.75 C113.10,39.12 116.06,40.09 115.43,41.11 C114.71,42.29 110.00,42.26 110.00,41.08 ZM 97.00 35.00 C98.97,33.72 105.71,33.72 106.50,35.00 C106.89,35.62 104.93,35.99 101.31,35.98 C97.19,35.97 95.94,35.69 97.00,35.00 Z" fill="rgb(253,241,4)"/>
</g>
</svg>