<svg xmlns="http://www.w3.org/2000/svg" viewBox="0 0 120 120" role="img" aria-label="Auto Check Saúde">
  <defs>
    <linearGradient id="gold" x1="0" y1="0" x2="1" y2="1">
      <stop offset="0" stop-color="#FFD700"/>
      <stop offset="1" stop-color="#FFB800"/>
    </linearGradient>
  </defs>
  <rect x="8" y="8" width="104" height="104" rx="22" fill="url(#gold)"/>
  <path d="M26 72c6-14 18-22 34-22s28 8 34 22" fill="none" stroke="#000" stroke-width="7" stroke-linecap="round"/>
  <circle cx="44" cy="80" r="8" fill="#000"/>
  <circle cx="76" cy="80" r="8" fill="#000"/>
  <path d="M84 36c-4 4-4 10 0 14l6 6-8 8-6-6c-4-4-10-4-14 0l-2-2c4-4 4-10 0-14l-6-6 8-8 6 6c4 4 10 4 14 0z" fill="#000" opacity="0.9"/>
</svg>
