<svg xmlns="http://www.w3.org/2000/svg" viewBox="0 0 520 140" role="img" aria-label="Auto Check Saúde">
  <title>Auto Check Saúde</title>
  <defs>
    <linearGradient id="gold" x1="0" y1="0" x2="1" y2="1">
      <stop offset="0" stop-color="#FFD700"/>
      <stop offset="1" stop-color="#FFB800"/>
    </linearGradient>
  </defs>

  <!-- Ícone -->
  <rect x="0" y="10" width="120" height="120" rx="24" fill="url(#gold)"/>
  <!-- Carro simples -->
  <path d="M26 78c6-16 18-26 34-26s28 10 34 26" fill="none" stroke="#000" stroke-width="6" stroke-linecap="round"/>
  <circle cx="44" cy="86" r="8" fill="#000"/>
  <circle cx="76" cy="86" r="8" fill="#000"/>
  <!-- Chave (wrench) -->
  <path d="M88 44c-4 4-4 10 0 14l6 6-8 8-6-6c-4-4-10-4-14 0l-2-2c4-4 4-10 0-14l-6-6 8-8 6 6c4 4 10 4 14 0z" fill="#000" opacity="0.9"/>

  <!-- Wordmark -->
  <text x="140" y="64" font-family="system-ui,-apple-system,Segoe UI,Roboto,Arial,sans-serif" font-size="42" font-weight="800" fill="#000">
    Auto Check
  </text>
  <text x="140" y="108" font-family="system-ui,-apple-system,Segoe UI,Roboto,Arial,sans-serif" font-size="42" font-weight="800" fill="#000">
    Saúde
  </text>
</svg>
